HIERARCHY
ROOT Hips
{
 OFFSET 0.000000 0.000000 0.000000
 CHANNELS 6 Xposition Yposition Zposition Yrotation Xrotation Zrotation
 JOINT Chest
 {
  OFFSET 0.000000 9.585900 0.002600
  CHANNELS 3 Yrotation Xrotation Zrotation
  JOINT Chest2
  {
   OFFSET 0.000000 9.601200 -0.005300
   CHANNELS 3 Yrotation Xrotation Zrotation
   JOINT Chest3
   {
    OFFSET 0.000000 9.561800 0.000000
    CHANNELS 3 Yrotation Xrotation Zrotation
    JOINT Chest4
    {
     OFFSET 0.000000 9.552100 0.000000
     CHANNELS 3 Yrotation Xrotation Zrotation
     JOINT Neck
     {
      OFFSET 0.000000 14.453000 0.000000
      CHANNELS 3 Yrotation Xrotation Zrotation
      JOINT Head
      {
       OFFSET 0.000000 8.936500 -0.011300
       CHANNELS 3 Yrotation Xrotation Zrotation
       End Site
       {
        OFFSET 0.000000 17.073600 -0.006000
       }
      }
     }
     JOINT RightCollar
     {
      OFFSET -2.921100 9.558500 0.000000
      CHANNELS 3 Yrotation Xrotation Zrotation
      JOINT RightShoulder
      {
       OFFSET -13.519700 0.000000 0.000000
       CHANNELS 3 Yrotation Xrotation Zrotation
       JOINT RightElbow
       {
        OFFSET 0.000000 -29.696600 0.000000
        CHANNELS 3 Yrotation Xrotation Zrotation
        JOINT RightWrist
        {
         OFFSET 0.000000 -24.004700 0.000000
         CHANNELS 3 Yrotation Xrotation Zrotation
         End Site
         {
          OFFSET 0.000000 -17.728500 0.000000
         }
        }
       }
      }
     }
     JOINT LeftCollar
     {
      OFFSET 2.921100 9.558500 0.000000
      CHANNELS 3 Yrotation Xrotation Zrotation
      JOINT LeftShoulder
      {
       OFFSET 13.519700 0.000000 0.000000
       CHANNELS 3 Yrotation Xrotation Zrotation
       JOINT LeftElbow
       {
        OFFSET 0.000000 -29.696600 0.000000
        CHANNELS 3 Yrotation Xrotation Zrotation
        JOINT LeftWrist
        {
         OFFSET 0.000000 -24.004700 0.000000
         CHANNELS 3 Yrotation Xrotation Zrotation
         End Site
         {
          OFFSET 0.000000 -17.728500 0.000000
         }
        }
       }
      }
     }
    }
   }
  }
 }
 JOINT RightHip
 {
  OFFSET -7.771700 -0.012900 -0.001300
  CHANNELS 3 Yrotation Xrotation Zrotation
  JOINT RightKnee
  {
   OFFSET 0.000000 -40.869800 0.001200
   CHANNELS 3 Yrotation Xrotation Zrotation
   JOINT RightAnkle
   {
    OFFSET 0.000000 -39.717900 0.002100
    CHANNELS 3 Yrotation Xrotation Zrotation
    JOINT RightToe
    {
     OFFSET 0.000000 -4.965400 11.033500
     CHANNELS 3 Yrotation Xrotation Zrotation
     End Site
     {
      OFFSET 0.000000 -1.423100 5.872300
     }
    }
   }
  }
 }
 JOINT LeftHip
 {
  OFFSET 7.771700 -0.012900 -0.001300
  CHANNELS 3 Yrotation Xrotation Zrotation
  JOINT LeftKnee
  {
   OFFSET 0.000000 -40.869800 0.001200
   CHANNELS 3 Yrotation Xrotation Zrotation
   JOINT LeftAnkle
   {
    OFFSET 0.000000 -39.717900 0.002100
    CHANNELS 3 Yrotation Xrotation Zrotation
    JOINT LeftToe
    {
     OFFSET 0.000000 -4.965400 11.033500
     CHANNELS 3 Yrotation Xrotation Zrotation
     End Site
     {
      OFFSET 0.000000 -1.423100 5.872300
     }
    }
   }
  }
 }
}
MOTION
Frames: 16
Frame Time: 0.008333
-44.932314 51.684879 19.201760 177.233534 -19.775502 0.714490 -1.660133 12.520275 0.027144 -0.132568 0.955909 0.050470 -0.216357 1.630018 0.083250 -1.511024 11.390382 0.463412 0.252331 16.757148 -3.138165 0.961441 -8.072849 -3.344016 4.794277 13.894324 9.627283 29.125340 1.087053 -31.940296 -158.847090 -45.794768 135.116845 -5.318544 2.922487 -24.021908 -0.949013 14.218358 -12.948811 -30.304872 5.736538 30.298849 175.427968 -47.058070 -145.649271 21.015102 -12.842956 5.385417 -11.920930 -63.248822 4.798882 -63.108750 82.390684 -71.291229 -3.369664 -8.145386 8.508047 0.248991 -0.631703 0.112091 11.952528 -60.720753 -8.322668 50.644764 86.141609 56.722284 -1.371859 -14.083073 0.287198 0.116925 0.385507 0.047503
-44.934503 51.684102 19.202250 177.224717 -19.770924 0.722685 -1.661299 12.517089 0.022248 -0.131017 0.956871 0.050452 -0.215978 1.627062 0.081554 -1.508945 11.390528 0.463085 0.247151 16.759745 -3.128921 0.961434 -8.074557 -3.336886 4.808596 13.881667 9.620462 29.022030 0.998351 -31.986755 -159.363484 -45.839792 135.524267 -5.278188 2.875756 -23.850992 -0.931679 14.198514 -12.945791 -30.161123 5.644172 30.365653 175.549083 -47.044770 -145.665944 21.132653 -13.135972 4.759729 -11.906989 -63.256985 4.784926 -63.087705 82.398734 -71.269663 -3.362119 -8.149084 8.512789 0.235504 -0.626561 0.104237 11.967713 -60.723817 -8.338644 50.705183 86.135861 56.786038 -1.371120 -14.079674 0.282111 0.117376 0.383451 0.047972
-44.936694 51.683315 19.203202 177.215838 -19.763859 0.730996 -1.655230 12.510924 0.017644 -0.132716 0.959803 0.050929 -0.220454 1.629939 0.084314 -1.508415 11.384505 0.461839 0.245136 16.760259 -3.121914 0.956626 -8.082024 -3.329738 4.816778 13.876508 9.613986 28.937338 0.910972 -32.046177 -159.904107 -45.903490 135.936837 -5.244745 2.823974 -23.647654 -0.902644 14.161143 -12.945141 -30.039474 5.579395 30.427536 175.747771 -47.079255 -145.725996 21.237801 -13.406446 4.106918 -11.896664 -63.268256 4.775806 -63.083373 82.408040 -71.263123 -3.366127 -8.157102 8.514153 0.237406 -0.618260 0.099080 11.974619 -60.728034 -8.346381 50.703511 86.131416 56.782437 -1.367418 -14.081122 0.276868 0.118456 0.386854 0.049608
-44.937947 51.682930 19.203436 177.210467 -19.761811 0.733096 -1.655093 12.512720 0.016944 -0.127654 0.959673 0.050229 -0.219879 1.629913 0.084366 -1.502971 11.388695 0.462812 0.235549 16.751200 -3.112011 0.944168 -8.094161 -3.319947 4.820404 13.855453 9.610175 28.865579 0.845620 -32.090843 -160.489751 -45.984484 136.366156 -5.215476 2.763300 -23.412768 -0.890308 14.120095 -12.936178 -29.934630 5.524139 30.488315 176.035182 -47.168477 -145.836554 21.340987 -13.646941 3.411800 -11.896731 -63.271649 4.779377 -63.092466 82.410102 -71.274385 -3.366759 -8.166999 8.523316 0.238665 -0.610940 0.092210 11.977049 -60.729543 -8.345786 50.705429 86.131011 56.784493 -1.369341 -14.083313 0.274246 0.122456 0.390184 0.051973
-44.938723 51.682780 19.203383 177.209850 -19.761654 0.731194 -1.652027 12.517165 0.020540 -0.128818 0.956706 0.048785 -0.218646 1.630359 0.083817 -1.500614 11.388393 0.463607 0.227741 16.746443 -3.103491 0.939280 -8.099697 -3.318259 4.834409 13.822549 9.599144 28.781765 0.785330 -32.122745 -161.066313 -46.081792 136.784848 -5.189294 2.696083 -23.151644 -0.875378 14.083203 -12.925109 -29.853617 5.488699 30.543532 176.412376 -47.309139 -146.003573 21.446269 -13.861677 2.659036 -11.910343 -63.272874 4.793920 -63.111381 82.410994 -71.298318 -3.369287 -8.171498 8.527161 0.241033 -0.611250 0.092333 11.967919 -60.730708 -8.337780 50.709299 86.132303 56.788591 -1.373268 -14.084466 0.271227 0.124502 0.392088 0.053761
-44.939430 51.682688 19.203399 177.202753 -19.760589 0.731267 -1.644180 12.518095 0.020302 -0.128921 0.955734 0.050255 -0.217179 1.630018 0.084313 -1.501154 11.388079 0.464338 0.219840 16.736363 -3.096485 0.936579 -8.100796 -3.316613 4.836114 13.817623 9.597324 28.712079 0.707775 -32.183031 -161.620406 -46.185513 137.187200 -5.163623 2.630536 -22.872504 -0.865347 14.051158 -12.915815 -29.801916 5.475176 30.577920 176.902784 -47.492864 -146.253235 21.557824 -14.056280 1.842531 -11.913205 -63.274158 4.803864 -63.090376 82.417733 -71.279747 -3.377394 -8.175643 8.530826 0.240159 -0.611108 0.092611 11.962919 -60.732965 -8.326468 50.699841 86.137311 56.775198 -1.370593 -14.086375 0.272129 0.122169 0.392375 0.053559
-44.941155 51.682520 19.203675 177.207368 -19.757029 0.733443 -1.648040 12.516494 0.017427 -0.128880 0.955806 0.049351 -0.217470 1.627897 0.084426 -1.494990 11.385720 0.464002 0.206045 16.726129 -3.088533 0.891591 -8.140801 -3.283820 4.844267 13.802060 9.590840 28.623385 0.633975 -32.236361 -162.140540 -46.285549 137.566168 -5.135362 2.573416 -22.582584 -0.864291 14.021881 -12.904571 -29.751927 5.467409 30.626089 177.422485 -47.705363 -146.531098 21.685379 -14.226611 0.971568 -11.914826 -63.278593 4.797074 -63.097204 82.419297 -71.285770 -3.378414 -8.187550 8.534466 0.239780 -0.614455 0.095195 11.959671 -60.736127 -8.331254 50.666734 86.137324 56.739614 -1.369278 -14.083658 0.270802 0.123595 0.392007 0.054812
-44.942162 51.682424 19.203573 177.198173 -19.755008 0.736064 -1.641177 12.516981 0.016177 -0.127451 0.954267 0.049985 -0.216249 1.626970 0.084598 -1.487260 11.384551 0.462044 0.177978 16.696703 -3.074818 0.892883 -8.133306 -3.284429 4.853591 13.782245 9.583127 28.527121 0.560800 -32.290472 -162.624081 -46.377303 137.921086 -5.107447 2.527714 -22.291860 -0.859529 13.960863 -12.869973 -29.697794 5.480633 30.659320 177.945044 -47.931851 -146.825605 21.841211 -14.369809 0.074582 -11.912254 -63.280131 4.800303 -63.076010 82.420322 -71.266460 -3.372960 -8.194499 8.539169 0.233606 -0.613684 0.092693 11.961154 -60.739429 -8.330774 50.745308 86.133956 56.820976 -1.368954 -14.080824 0.263705 0.125830 0.387637 0.056218
-44.943288 51.682107 19.203847 177.188891 -19.749590 0.739279 -1.631787 12.512144 0.015704 -0.127917 0.954044 0.050252 -0.218028 1.628180 0.084371 -1.481981 11.382510 0.461926 0.164444 16.682602 -3.071488 0.896560 -8.126777 -3.284626 4.864252 13.762053 9.575116 28.432312 0.491882 -32.349802 -163.073738 -46.462695 138.255546 -5.087797 2.495625 -22.008991 -0.860633 13.947113 -12.859074 -29.676378 5.481531 30.680681 178.562563 -48.167810 -147.225874 22.026010 -14.490719 -0.808370 -11.912066 -63.286144 4.807578 -63.069394 82.417310 -71.261340 -3.370222 -8.196746 8.536993 0.233878 -0.612570 0.094828 11.965251 -60.745036 -8.330859 50.835713 86.127269 56.910481 -1.372568 -14.080834 0.263642 0.125078 0.386701 0.053804
-44.943881 51.681832 19.203675 177.190921 -19.746402 0.735718 -1.633211 12.508355 0.017988 -0.126284 0.954124 0.050449 -0.216499 1.626117 0.084175 -1.480427 11.377995 0.463996 0.156280 16.684265 -3.071589 0.863712 -8.158525 -3.274726 4.871212 13.741824 9.566472 28.342061 0.434310 -32.408917 -163.487619 -46.543078 138.565508 -5.079744 2.476753 -21.735911 -0.864105 13.940863 -12.849721 -29.653643 5.483103 30.703494 179.145571 -48.395597 -147.641826 22.211078 -14.598706 -1.633704 -11.926219 -63.286582 4.819121 -63.060893 82.413468 -71.253975 -3.367609 -8.202558 8.537035 0.233856 -0.610084 0.094995 11.957222 -60.749797 -8.324724 50.871316 86.124988 56.944863 -1.373728 -14.081517 0.262872 0.126199 0.387567 0.054772
-44.944981 51.681502 19.203364 177.193019 -19.743305 0.735586 -1.637689 12.503892 0.014792 -0.124428 0.954076 0.052514 -0.216487 1.624859 0.084214 -1.481145 11.374024 0.464809 0.139592 16.667963 -3.071565 0.816369 -8.212318 -3.263884 4.898258 13.697710 9.548938 28.236021 0.393804 -32.451109 -163.862527 -46.617572 138.847040 -5.081467 2.463897 -21.473305 -0.864018 13.912733 -12.821509 -29.592026 5.524237 30.811831 179.543769 -48.560810 -147.900009 22.364639 -14.701503 -2.367082 -11.930215 -63.289147 4.818634 -63.054110 82.413544 -71.246813 -3.366190 -8.203375 8.541126 0.230616 -0.616318 0.094983 11.946716 -60.752492 -8.322809 50.886831 86.122700 56.959729 -1.369909 -14.083730 0.259195 0.128158 0.390557 0.055177
-44.945928 51.681135 19.202889 177.198957 -19.741006 0.734060 -1.644898 12.500735 0.012297 -0.125532 0.953274 0.052622 -0.219714 1.621995 0.079844 -1.481337 11.373570 0.466493 0.098850 16.618321 -3.076588 0.856732 -8.172065 -3.266977 4.917132 13.683506 9.545599 28.149774 0.336103 -32.523312 -164.197808 -46.688351 139.102194 -5.090015 2.450645 -21.217857 -0.864468 13.893918 -12.802367 -29.549000 5.575311 30.899769 179.972797 -48.705655 -148.216508 22.485935 -14.794414 -2.999549 -11.938366 -63.292528 4.820886 -63.082331 82.405561 -71.277439 -3.354285 -8.196053 8.543880 0.228670 -0.624780 0.094428 11.938268 -60.755784 -8.324363 50.877151 86.122897 56.951476 -1.365651 -14.082521 0.255740 0.128803 0.390355 0.056105
-44.945695 51.680687 19.202662 177.196045 -19.737315 0.729702 -1.642832 12.496277 0.014730 -0.127420 0.951952 0.049877 -0.216719 1.623601 0.083914 -1.484402 11.369331 0.462743 0.077145 16.594961 -3.079791 0.798081 -8.241266 -3.261032 4.926333 13.681595 9.548214 28.076830 0.273837 -32.607925 -164.501813 -46.758907 139.334125 -5.097998 2.431569 -20.959330 -0.872531 13.879159 -12.790711 -29.525627 5.632859 30.974510 -179.578738 -48.837421 -148.569456 22.590520 -14.866844 -3.543533 -11.950405 -63.295045 4.838122 -63.095885 82.397105 -71.291576 -3.347336 -8.189580 8.541183 0.228935 -0.630242 0.097232 11.929009 -60.762016 -8.313966 50.885013 86.125988 56.960757 -1.360894 -14.083025 0.253641 0.127045 0.389901 0.055233
-44.945598 51.680258 19.202498 177.196899 -19.733342 0.726670 -1.647333 12.491297 0.013604 -0.127388 0.951837 0.049731 -0.216662 1.623607 0.083622 -1.483989 11.369448 0.460827 0.054962 16.567843 -3.084687 0.758417 -8.288404 -3.260631 4.947139 13.652894 9.543977 27.995317 0.230442 -32.672845 -164.787391 -46.830130 139.550526 -5.101349 2.402500 -20.692228 -0.875114 13.870514 -12.783132 -29.529575 5.694620 31.053213 -179.143147 -48.954308 -148.919711 22.681428 -14.913737 -4.018036 -11.959554 -63.298653 4.846841 -63.099078 82.395922 -71.290295 -3.353973 -8.186291 8.532582 0.235207 -0.631747 0.102493 11.914199 -60.768236 -8.304495 50.884155 86.128596 56.959154 -1.354835 -14.083726 0.249527 0.124896 0.390115 0.054891
-44.945708 51.680010 19.202171 177.198400 -19.730497 0.726912 -1.648743 12.490019 0.012779 -0.127268 0.952177 0.049615 -0.216647 1.624052 0.083268 -1.478573 11.372095 0.457248 0.037147 16.548443 -3.084295 0.711387 -8.336895 -3.265309 4.957191 13.618509 9.537968 27.920882 0.190990 -32.733639 -165.062649 -46.904011 139.761111 -5.101185 2.366957 -20.421975 -0.889410 13.855148 -12.774137 -29.557914 5.763131 31.123213 -178.726131 -49.061254 -149.258958 22.751537 -14.929081 -4.439475 -11.969078 -63.301333 4.857277 -63.107845 82.394586 -71.301707 -3.363230 -8.186412 8.528167 0.235820 -0.628535 0.106430 11.899390 -60.772176 -8.296501 50.893311 86.129042 56.964258 -1.351205 -14.085631 0.243430 0.123310 0.391021 0.056929
-44.945624 51.680084 19.201427 177.198130 -19.730356 0.729039 -1.644723 12.490904 0.011832 -0.124204 0.951120 0.049996 -0.219595 1.625316 0.082685 -1.475653 11.370169 0.456608 -0.008055 16.509378 -3.099590 0.680795 -8.363886 -3.268248 4.970629 13.565044 9.513914 27.849470 0.173804 -32.765686 -165.335785 -46.984069 139.967759 -5.093142 2.329059 -20.151390 -0.917166 13.836122 -12.764522 -29.600592 5.839375 31.175038 -178.324817 -49.165084 -149.586086 22.802600 -14.902520 -4.826997 -11.974226 -63.300975 4.862647 -63.109773 82.396315 -71.306549 -3.368579 -8.191206 8.524490 0.237642 -0.624825 0.109121 11.896537 -60.771983 -8.295676 50.888519 86.131050 56.957365 -1.346720 -14.088413 0.241967 0.120924 0.391335 0.056304
